<svg xmlns="http://www.w3.org/2000/svg" viewBox="0 0 185.26 152.13">
    <defs>
        <style>.cls-1{fill:#351c48;fill-rule:evenodd;}</style>
    </defs>
    <g id="Layer_2" data-name="Layer 2">
        <g id="Layer_1-2" data-name="Layer 1">
            <path class="cls-1"
                d="M92.63,122.4A20.59,20.59,0,0,1,72,101.8h41.2a20.59,20.59,0,0,1-20.6,20.6Zm-46-46a12.71,12.71,0,0,0-4.87,1,12.53,12.53,0,0,0-4.13,2.76,12.75,12.75,0,0,0-2.76,4.12,12.56,12.56,0,0,0-1,4.88H59.31A12.72,12.72,0,0,0,46.59,76.37Zm92.17,0A12.72,12.72,0,0,0,126,89.08h25.44a12.72,12.72,0,0,0-12.72-12.71ZM92.63,15.76a7.87,7.87,0,1,0-5.58-2.31A7.87,7.87,0,0,0,92.63,15.76Z" />
            <path class="cls-1"
                d="M168.92,133a14.25,14.25,0,0,1-4.5,3.39,14.45,14.45,0,0,1-5.47,1.36c-15.9.74-40.31,1.62-66.32,1.62s-50.42-.88-66.32-1.62a14.28,14.28,0,0,1-5.47-1.37,14.07,14.07,0,0,1-4.5-3.38,14.07,14.07,0,0,1-3.58-10.41c.84-12.72,2-24,3.37-33.47,2.07-14.08,5.19-28.37,7.44-37.89a14.12,14.12,0,0,1,13-10.92c11.53-.72,30.62-1.58,56.1-1.58s44.58.86,56.11,1.58a14.12,14.12,0,0,1,12.95,10.92c2.26,9.52,5.37,23.82,7.44,37.89,1.4,9.49,2.54,20.75,3.37,33.47a14.23,14.23,0,0,1-.73,5.57A14,14,0,0,1,168.92,133Zm12.8-45.73c-2.14-14.52-5.34-29.21-7.65-39a26.78,26.78,0,0,0-24.55-20.69c-11.7-.73-31.08-1.6-56.89-1.6s-45.18.87-56.89,1.6A26.78,26.78,0,0,0,11.19,48.33c-2.31,9.76-5.51,24.44-7.65,39C2.09,97.12.92,108.72.06,121.79a26.9,26.9,0,0,0,25.66,28.69c16,.75,40.65,1.65,66.91,1.65s50.88-.9,66.91-1.65a27,27,0,0,0,24.26-18.15,26.57,26.57,0,0,0,1.39-10.54C184.33,108.72,183.16,97.12,181.72,87.3Z" />
        </g>
    </g>
</svg>
